<svg version="1.2" xmlns="http://www.w3.org/2000/svg" viewBox="0 0 316 320" width="316" height="320"><defs><linearGradient id="P" gradientUnits="userSpaceOnUse"/><radialGradient id="g1" cx="0" cy="0" r="1" href="#P" gradientTransform="matrix(1201.75,0,0,1201.75,276,161.998)"><stop offset="0" stop-color="#fed6ff"/><stop offset="1" stop-color="#8e2cf1"/></radialGradient><linearGradient id="g2" x2="1" href="#P" gradientTransform="matrix(344.531,-277.812,169.932,210.743,-199.592,258.401)"><stop offset="0" stop-color="#2e0c7d"/><stop offset="1" stop-color="#8e2cf1"/></linearGradient><linearGradient id="g3" x2="1" href="#P" gradientTransform="matrix(-86.856,-156.341,143.014,-79.452,60.629,150.901)"><stop offset="0" stop-color="#2e0c7d"/><stop offset="1" stop-color="#8e2cf1"/></linearGradient><linearGradient id="g4" x2="1" href="#P" gradientTransform="matrix(141.543,0,0,131.83,159.553,18.518)"><stop offset="0" stop-color="#a440f2"/><stop offset="1" stop-color="#fc66ff"/></linearGradient><linearGradient id="g5" x2="1" href="#P" gradientTransform="matrix(-25.458,77.061,-67.67,-22.356,107.411,236.908)"><stop offset="0" stop-color="#a440f2"/><stop offset="1" stop-color="#fc66ff"/></linearGradient><linearGradient id="g6" x2="1" href="#P" gradientTransform="matrix(84.988,61.87,-45.097,61.947,75.164,242.594)"><stop offset="0" stop-color="#2e0c7d"/><stop offset="1" stop-color="#8e2cf1"/></linearGradient></defs><style>.a{fill:url(#g1)}.b{fill:url(#g2)}.c{fill:url(#g3)}.d{fill:url(#g4)}.e{fill:url(#g5)}.f{fill:url(#g6)}</style><g style="display:none"><path class="a" d="m776 662h-1000v-1000h1000z"/></g><path class="b" d="m301.1 40.1c0 4-1.1 7.9-3.1 11.1l-2.1 2.8-70.2 96.3-40.1 55-1.8 2.5c-5.7 7.1-14.5 11.6-24.2 11.6-10.1 0-19-4.8-24.7-12.2l-1.1-1.5h-0.1l-40.3-55.4-26-35.6c6.2 7.5 15.5 12.2 26 12.2 11 0 20.8-5.3 27-13.5v-0.1l39.2-53.6 22.9-31.6 0.1-0.1 1-1.3c3.9-5 10-8.2 16.9-8.2h79.1c11.9 0 21.5 9.7 21.5 21.6z"/><path class="c" d="m159.6 59.7l-39.2 53.6v0.1c-6.2 8.2-16 13.5-27 13.5-10.5 0-19.8-4.7-26-12.2l-0.1-0.1-2.2-3.1-0.2-0.2-41.7-57.2-2.1-2.9c-2-3.3-3.1-7.1-3.1-11.1 0-11.9 9.6-21.6 21.5-21.6h79.1c6.9 0 13.1 3.3 17 8.3l0.1 0.1 0.8 1.1v0.1z"/><path class="d" d="m279.6 18.5h-79.1c-6.9 0-13 3.2-16.9 8.2l-1 1.3-0.1 0.1-22.9 31.6 66.1 90.6 70.2-96.3 2.1-2.8c2-3.2 3.1-7.1 3.1-11.1 0-11.9-9.6-21.6-21.5-21.6z"/><path class="e" d="m191.5 273.5c0 17.7-14.3 32-31.9 32-17.7 0-32-14.3-32-32 0-5.8 0-9.2 0-15 0-17.6 14.3-32 32-32 17.6 0 31.9 14.4 31.9 32 0 5.8 0 9.2 0 15z"/><path class="f" d="m189.5 284.7l-14.7-20v-0.1c-5.9-7.7-15.1-12.8-25.6-12.8-8.4 0-15.9 3.2-21.6 8.4q0-0.8 0-1.7c0-17.6 14.3-32 32-32 17.6 0 31.9 14.4 31.9 32 0 5.8 0 9.2 0 15 0 4-0.7 7.8-2 11.2z"/></svg>